<?xml version="1.0" encoding="utf-8"?>
<!-- Generator: Adobe Illustrator 25.4.1, SVG Export Plug-In . SVG Version: 6.00 Build 0)  -->
<svg version="1.1" id="visual" xmlns="http://www.w3.org/2000/svg" xmlns:xlink="http://www.w3.org/1999/xlink" x="0px" y="0px"
	 viewBox="0 0 1920 100" style="enable-background:new 0 0 1920 100;" xml:space="preserve">
<style type="text/css">
	.st0{fill:#073651;}
	.st1{fill:#05273B;}
	.st2{fill:#031926;}
</style>
<path class="st0" d="M1920,51l-53.3,0.5c-53.4,0.5-160,1.5-266.7-2.3c-106.7-3.9-213.3-12.5-320-12.5S1066.7,45.3,960,50
	s-213.3,5.3-320,0S426.7,33.3,320,29.7C213.3,26,106.7,30,53.3,32L0,34v66h53.3c53.4,0,160,0,266.7,0s213.3,0,320,0s213.3,0,320,0
	s213.3,0,320,0s213.3,0,320,0s213.3,0,266.7,0h53.3V51z"/>
<path class="st1" d="M1920,40l-53.3,6.2c-53.4,6.1-160,18.5-266.7,22.5s-213.3-0.4-320-4.9s-213.3-9.1-320-9
	C853.3,55,746.7,60,640,65S426.7,75,320,76.3c-106.7,1.4-213.3-1-266.7-2.1L0,73v27h53.3c53.4,0,160,0,266.7,0s213.3,0,320,0
	s213.3,0,320,0s213.3,0,320,0s213.3,0,320,0s213.3,0,266.7,0h53.3V40z"/>
<path class="st2" d="M1920,79l-53.3,1c-53.4,1-160,3-266.7,1.5s-213.3-6.5-320-6s-213.3,6.5-320,10S746.7,90,640,87.7
	c-106.7-2.4-213.3-8-320-11.4C213.3,73,106.7,72,53.3,71.5L0,71v29h53.3c53.4,0,160,0,266.7,0s213.3,0,320,0s213.3,0,320,0
	s213.3,0,320,0s213.3,0,320,0s213.3,0,266.7,0h53.3V79z"/>
</svg>
