<svg id="visual" viewBox="0 0 1920 100" width="1920" height="100" xmlns="http://www.w3.org/2000/svg" xmlns:xlink="http://www.w3.org/1999/xlink" version="1.1"><path d="M0 49L53.3 48.5C106.7 48 213.3 47 320 50.8C426.7 54.7 533.3 63.3 640 63.3C746.7 63.3 853.3 54.7 960 50C1066.7 45.3 1173.3 44.7 1280 50C1386.7 55.3 1493.3 66.7 1600 70.3C1706.7 74 1813.3 70 1866.7 68L1920 66L1920 0L1866.7 0C1813.3 0 1706.7 0 1600 0C1493.3 0 1386.7 0 1280 0C1173.3 0 1066.7 0 960 0C853.3 0 746.7 0 640 0C533.3 0 426.7 0 320 0C213.3 0 106.7 0 53.3 0L0 0Z" fill="#073651"></path><path d="M0 60L53.3 53.8C106.7 47.7 213.3 35.3 320 31.3C426.7 27.3 533.3 31.7 640 36.2C746.7 40.7 853.3 45.3 960 45.2C1066.7 45 1173.3 40 1280 35C1386.7 30 1493.3 25 1600 23.7C1706.7 22.3 1813.3 24.7 1866.7 25.8L1920 27L1920 0L1866.7 0C1813.3 0 1706.7 0 1600 0C1493.3 0 1386.7 0 1280 0C1173.3 0 1066.7 0 960 0C853.3 0 746.7 0 640 0C533.3 0 426.7 0 320 0C213.3 0 106.7 0 53.3 0L0 0Z" fill="#05273b"></path><path d="M0 21L53.3 20C106.7 19 213.3 17 320 18.5C426.7 20 533.3 25 640 24.5C746.7 24 853.3 18 960 14.5C1066.7 11 1173.3 10 1280 12.3C1386.7 14.7 1493.3 20.3 1600 23.7C1706.7 27 1813.3 28 1866.7 28.5L1920 29L1920 0L1866.7 0C1813.3 0 1706.7 0 1600 0C1493.3 0 1386.7 0 1280 0C1173.3 0 1066.7 0 960 0C853.3 0 746.7 0 640 0C533.3 0 426.7 0 320 0C213.3 0 106.7 0 53.3 0L0 0Z" fill="#031926"></path></svg>